<svg height="512" viewBox="0 0 60 58" width="512" xmlns="http://www.w3.org/2000/svg"><g id="Page-1" fill="none" fill-rule="evenodd"><g id="097---Payment-Form"><g fill="#afd2ef"><rect id="Rectangle" height="8" rx="2" width="38" x="1" y="23"/><rect id="Rectangle" height="8" rx="2" width="38" x="1" y="34.963"/><rect id="Rectangle" height="8" rx="2" width="16" x="43" y="35"/><rect id="Rectangle" height="8" rx="2" width="16" x="43" y="23"/></g><rect id="Rectangle" fill="#4481c2" height="18" rx="2" width="26" x="17"/><path id="Rectangle" d="m17 4h26v2h-26z" fill="#464f5d"/><path id="Path" d="m39 15h-4c-.5522847 0-1-.4477153-1-1s.4477153-1 1-1h4c.5522847 0 1 .4477153 1 1s-.4477153 1-1 1z" fill="#ebeff0"/><path id="Path" d="m39 11h-8c-.5522847 0-1-.4477153-1-1 0-.55228475.4477153-1 1-1h8c.5522847 0 1 .44771525 1 1 0 .5522847-.4477153 1-1 1z" fill="#ebeff0"/><rect id="Rectangle" fill="#f2d45b" height="4" rx="2" width="6" x="21" y="10"/><rect id="Rectangle" fill="#f2d45b" height="10" rx="5" width="26" x="33" y="48"/><path id="Shape" d="m57 44h-12c-1.6568542 0-3-1.3431458-3-3v-4c0-1.6568542 1.3431458-3 3-3h12c1.6568542 0 3 1.3431458 3 3v4c0 1.6568542-1.3431458 3-3 3zm-12-8c-.5522847 0-1 .4477153-1 1v4c0 .5522847.4477153 1 1 1h12c.5522847 0 1-.4477153 1-1v-4c0-.5522847-.4477153-1-1-1z" fill="#3b96d2" fill-rule="nonzero"/><path id="Shape" d="m37 44h-34c-1.65685425 0-3-1.3431458-3-3v-4c0-1.6568542 1.34314575-3 3-3h34c1.6568542 0 3 1.3431458 3 3v4c0 1.6568542-1.3431458 3-3 3zm-34-8c-.55228475 0-1 .4477153-1 1v4c0 .5522847.44771525 1 1 1h34c.5522847 0 1-.4477153 1-1v-4c0-.5522847-.4477153-1-1-1z" fill="#3b96d2" fill-rule="nonzero"/><path id="Shape" d="m37 32h-34c-1.65685425 0-3-1.3431458-3-3v-4c0-1.6568542 1.34314575-3 3-3h34c1.6568542 0 3 1.3431458 3 3v4c0 1.6568542-1.3431458 3-3 3zm-34-8c-.55228475 0-1 .4477153-1 1v4c0 .5522847.44771525 1 1 1h34c.5522847 0 1-.4477153 1-1v-4c0-.5522847-.4477153-1-1-1z" fill="#3b96d2" fill-rule="nonzero"/><path id="Shape" d="m57 22h-12c-1.6568542 0-3 1.3431458-3 3v4c0 1.6568542 1.3431458 3 3 3h12c1.6568542 0 3-1.3431458 3-3v-4c0-1.6568542-1.3431458-3-3-3zm-13 7v-4c0-.5522847.4477153-1 1-1h5v6h-5c-.5522847 0-1-.4477153-1-1zm14 0c0 .5522847-.4477153 1-1 1h-5v-6h5c.5522847 0 1 .4477153 1 1z" fill="#3b96d2" fill-rule="nonzero"/><path id="Path" d="m11 13c-.2651948-.0000566-.5195073-.1054506-.707-.293l-3-3c-.39038194-.39049985-.39038194-1.02350015 0-1.414l3-3c.2510745-.25995658.6228779-.3642126.9725073-.27269716.3496295.09151544.6226744.3645604.7141899.71418984.0915154.34962943-.0127406.72143285-.2726972.97250732l-2.293 2.293 2.293 2.293c.2859079.2859943.3714219.7160366.216678 1.0896546-.1547439.3736179-.5192821.6172591-.923678.6173454z" fill="#547580"/><path id="Path" d="m49 13c-.4043959-.0000863-.7689341-.2437275-.923678-.6173454-.1547439-.373618-.0692299-.8036603.216678-1.0896546l2.293-2.293-2.293-2.293c-.3789722-.39237889-.3735524-1.01608478.0121814-1.40181858.3857338-.38573379 1.0094397-.39115363 1.4018186-.01218142l3 3c.3903819.39049985.3903819 1.02350015 0 1.414l-3 3c-.1874927.1875494-.4418052.2929434-.707.293z" fill="#547580"/></g></g></svg>